<svg width="56" height="38" viewBox="0 0 56 38" fill="none" xmlns="http://www.w3.org/2000/svg">
<g id="Group 240281">
<path id="Vector" d="M41.4562 37.7197H47.9255C48.421 37.7197 48.8616 37.4419 49.1093 37.0253L55.7437 25.3586C55.9915 24.942 55.9915 24.4142 55.7437 23.9975L42.9704 0.941936C42.4473 -0.00251007 41.126 -0.00249481 40.5754 0.914173L37.1067 6.77529C36.859 7.21973 36.859 7.74751 37.1067 8.16417L46.0811 23.9975C46.3289 24.4142 46.3289 24.9419 46.0811 25.3864L40.2175 35.6642C39.7495 36.553 40.4101 37.7197 41.4562 37.7197Z" fill="#0075FF"/>
<path id="Vector_2" d="M22.1887 37.7197H28.6579C29.1535 37.7197 29.594 37.4419 29.8417 37.0253L36.4761 25.3586C36.7239 24.942 36.7239 24.4142 36.4761 23.9975L23.7028 0.941936C23.1797 -0.00251007 21.8584 -0.00249481 21.3078 0.914173L17.8391 6.77529C17.5914 7.21973 17.5914 7.74751 17.8391 8.16417L26.8136 23.9975C27.0613 24.4142 27.0613 24.9419 26.8136 25.3864L20.9499 35.6642C20.4819 36.553 21.1426 37.7197 22.1887 37.7197Z" fill="#0075FF"/>
<path id="Vector_3" d="M0 37.7197H8.83681C9.33233 37.7197 9.80032 37.4419 10.0481 37.0253L16.71 25.1086C16.9578 24.692 16.9578 24.1642 16.71 23.7197L13.6268 18.3864C13.1037 17.4697 11.7824 17.4697 11.2594 18.3864L0 37.7197Z" fill="#0075FF"/>
</g>
</svg>
