<svg width="65" height="66" viewBox="0 0 65 66" fill="none" xmlns="http://www.w3.org/2000/svg">
<rect x="0.5" y="1" width="64" height="64" rx="19.5" stroke="white"/>
<path d="M32.5 40.292C32.7784 40.292 33.0429 40.2409 33.2934 40.1388C33.5347 40.0273 33.7667 39.8556 33.9894 39.6234L44.471 28.8983C44.8237 28.5455 45 28.1137 45 27.603C45 27.2501 44.9165 26.9344 44.7494 26.6558C44.5824 26.368 44.3597 26.1404 44.0813 25.9733C43.8029 25.7969 43.4874 25.7087 43.1347 25.7087C42.6243 25.7087 42.1696 25.9037 41.7706 26.2937L32.5 35.8348L23.2294 26.2937C22.8396 25.9037 22.3849 25.7087 21.8653 25.7087C21.5219 25.7087 21.211 25.7969 20.9326 25.9733C20.645 26.1404 20.4176 26.368 20.2506 26.6558C20.0835 26.9344 20 27.2501 20 27.603C20 28.1137 20.1763 28.5455 20.529 28.8983L31.0106 39.6234C31.2333 39.8463 31.4653 40.0134 31.7066 40.1248C31.9478 40.227 32.2123 40.2827 32.5 40.292Z" fill="white"/>
</svg>
