<svg width="58" height="58" viewBox="0 0 58 58" fill="none" xmlns="http://www.w3.org/2000/svg">
<rect x="-0.5" y="0.5" width="57" height="57" rx="14.5" transform="matrix(-1 0 0 1 57 0)" stroke="#E2E8F0" stroke-opacity="0.3"/>
<path d="M30.1847 18.2116C30.1854 18.341 30.1606 18.4692 30.1117 18.589C30.0628 18.7088 29.9907 18.8178 29.8996 18.9096L19.7825 29.0268L29.8996 39.1439C30.0606 39.332 30.1448 39.5739 30.1353 39.8214C30.1257 40.0688 30.0231 40.3035 29.848 40.4786C29.6729 40.6537 29.4382 40.7563 29.1907 40.7659C28.9433 40.7754 28.7013 40.6913 28.5133 40.5302L17 29.0268L28.5133 17.5135C28.6513 17.3782 28.8261 17.2866 29.0159 17.2501C29.2057 17.2136 29.4021 17.2339 29.5804 17.3084C29.7588 17.3829 29.9112 17.5083 30.0187 17.6689C30.1262 17.8295 30.1839 18.0183 30.1847 18.2116Z" fill="white"/>
<path d="M41 18.2116C41.0007 18.341 40.9759 18.4692 40.927 18.589C40.8781 18.7088 40.806 18.8178 40.7149 18.9096L30.5977 29.0268L40.7149 39.1439C40.8759 39.332 40.9601 39.5739 40.9505 39.8214C40.941 40.0688 40.8384 40.3035 40.6633 40.4786C40.4882 40.6537 40.2535 40.7563 40.006 40.7659C39.7586 40.7754 39.5166 40.6913 39.3285 40.5302L27.8153 29.0268L39.3285 17.5135C39.4666 17.3782 39.6414 17.2866 39.8312 17.2501C40.021 17.2136 40.2174 17.2339 40.3957 17.3084C40.5741 17.3829 40.7265 17.5083 40.834 17.6689C40.9414 17.8295 40.9992 18.0183 41 18.2116Z" fill="white"/>
<path d="M30.1847 18.2116C30.1854 18.341 30.1606 18.4692 30.1117 18.589C30.0628 18.7088 29.9907 18.8178 29.8996 18.9096L19.7825 29.0268L29.8996 39.1439C30.0606 39.332 30.1448 39.5739 30.1353 39.8214C30.1257 40.0688 30.0231 40.3035 29.848 40.4786C29.6729 40.6537 29.4382 40.7563 29.1907 40.7659C28.9433 40.7754 28.7013 40.6913 28.5133 40.5302L17 29.0268L28.5133 17.5135C28.6513 17.3782 28.8261 17.2866 29.0159 17.2501C29.2057 17.2136 29.4021 17.2339 29.5804 17.3084C29.7588 17.3829 29.9112 17.5083 30.0187 17.6689C30.1262 17.8295 30.1839 18.0183 30.1847 18.2116Z" stroke="white"/>
<path d="M41 18.2116C41.0007 18.341 40.9759 18.4692 40.927 18.589C40.8781 18.7088 40.806 18.8178 40.7149 18.9096L30.5977 29.0268L40.7149 39.1439C40.8759 39.332 40.9601 39.5739 40.9505 39.8214C40.941 40.0688 40.8384 40.3035 40.6633 40.4786C40.4882 40.6537 40.2535 40.7563 40.006 40.7659C39.7586 40.7754 39.5166 40.6913 39.3285 40.5302L27.8153 29.0268L39.3285 17.5135C39.4666 17.3782 39.6414 17.2866 39.8312 17.2501C40.021 17.2136 40.2174 17.2339 40.3957 17.3084C40.5741 17.3829 40.7265 17.5083 40.834 17.6689C40.9414 17.8295 40.9992 18.0183 41 18.2116Z" stroke="white"/>
</svg>
