<svg width="60" height="60" viewBox="0 0 60 60" fill="none" xmlns="http://www.w3.org/2000/svg">
<rect width="60" height="60" rx="20" fill="white"/>
<path d="M30 11.25C19.6484 11.25 11.25 19.6484 11.25 30C11.25 40.3516 19.6484 48.75 30 48.75C40.3516 48.75 48.75 40.3516 48.75 30C48.75 19.6484 40.3516 11.25 30 11.25ZM29.4141 40.9375C29.0278 40.9375 28.6502 40.8229 28.329 40.6083C28.0078 40.3937 27.7574 40.0887 27.6096 39.7318C27.4618 39.3749 27.4231 38.9822 27.4985 38.6033C27.5738 38.2245 27.7598 37.8764 28.033 37.6033C28.3061 37.3302 28.6542 37.1441 29.033 37.0688C29.4119 36.9934 29.8046 37.0321 30.1615 37.1799C30.5184 37.3277 30.8234 37.5781 31.038 37.8993C31.2526 38.2205 31.3672 38.5981 31.3672 38.9844C31.3672 39.5024 31.1614 39.9992 30.7951 40.3654C30.4288 40.7317 29.9321 40.9375 29.4141 40.9375ZM32.6797 30.9766C31.0967 32.0391 30.8789 33.0127 30.8789 33.9062C30.8789 34.2688 30.7349 34.6166 30.4785 34.873C30.2221 35.1294 29.8743 35.2734 29.5117 35.2734C29.1491 35.2734 28.8014 35.1294 28.545 34.873C28.2886 34.6166 28.1445 34.2688 28.1445 33.9062C28.1445 31.7666 29.1289 30.0654 31.1543 28.7051C33.0371 27.4414 34.1016 26.6406 34.1016 24.8799C34.1016 23.6826 33.418 22.7734 32.0029 22.1006C31.6699 21.9424 30.9287 21.7881 30.0166 21.7988C28.8721 21.8135 27.9834 22.0869 27.2988 22.6377C26.0078 23.6768 25.8984 24.8076 25.8984 24.8242C25.8898 25.0038 25.8458 25.1798 25.7691 25.3424C25.6924 25.505 25.5845 25.6508 25.4514 25.7717C25.3183 25.8925 25.1627 25.9859 24.9935 26.0466C24.8244 26.1073 24.6449 26.1341 24.4653 26.1255C24.2858 26.1168 24.1097 26.0729 23.9471 25.9962C23.7846 25.9195 23.6387 25.8115 23.5179 25.6784C23.3971 25.5454 23.3036 25.3898 23.2429 25.2206C23.1822 25.0514 23.1554 24.8719 23.1641 24.6924C23.1748 24.4551 23.3398 22.3174 25.583 20.5127C26.7461 19.5771 28.2256 19.0908 29.9775 19.0693C31.2178 19.0547 32.3828 19.2646 33.1728 19.6377C35.5371 20.7559 36.8359 22.6201 36.8359 24.8799C36.8359 28.1836 34.6279 29.667 32.6797 30.9766Z" fill="#0075FF"/>
</svg>
