<svg width="37" height="30" viewBox="0 0 37 30" fill="none" xmlns="http://www.w3.org/2000/svg">
<path d="M18.4025 2.8125C10.4662 2.8125 4.00928 8.27988 4.00928 15C4.00928 21.7201 10.4662 27.1875 18.4025 27.1875C26.3388 27.1875 32.7957 21.7201 32.7957 15C32.7957 8.27988 26.3388 2.8125 18.4025 2.8125ZM25.8932 10.9154L16.593 20.2904C16.4909 20.3933 16.364 20.4764 16.2207 20.5342C16.0775 20.5919 15.9212 20.6229 15.7626 20.625H15.7439C15.5887 20.625 15.4353 20.5973 15.2935 20.5438C15.1518 20.4903 15.0249 20.4121 14.9211 20.3145L10.9353 16.5645C10.8341 16.4735 10.7553 16.3664 10.7037 16.2494C10.6521 16.1323 10.6286 16.0077 10.6347 15.8829C10.6407 15.758 10.6762 15.6355 10.739 15.5224C10.8017 15.4093 10.8906 15.308 11.0003 15.2245C11.11 15.1409 11.2383 15.0767 11.3777 15.0357C11.517 14.9947 11.6647 14.9777 11.812 14.9858C11.9592 14.9938 12.1031 15.0266 12.2351 15.0824C12.3672 15.1382 12.4847 15.2158 12.5808 15.3105L15.7148 18.259L24.1978 9.70957C24.3881 9.52329 24.6573 9.40789 24.9473 9.38833C25.2372 9.36876 25.5246 9.4466 25.7473 9.60502C25.9701 9.76343 26.1102 9.9897 26.1375 10.2349C26.1648 10.4801 26.077 10.7246 25.8932 10.9154Z" fill="#01B574"/>
</svg>
