<svg width="81" height="80" viewBox="0 0 81 80" fill="none" xmlns="http://www.w3.org/2000/svg">
<path d="M6.95754 43.533C5.00634 41.5818 5.00634 38.4182 6.95754 36.467L36.9612 6.4634C38.9124 4.5122 42.0759 4.5122 44.0271 6.4634L74.0307 36.467C75.9819 38.4182 75.9819 41.5818 74.0307 43.533L44.0271 73.5366C42.0759 75.4878 38.9124 75.4878 36.9612 73.5366L6.95754 43.533Z" fill="#EE513B"/>
<path d="M30.8665 12.6543L27.8281 15.6926L35.6754 23.5399C35.358 24.221 35.1807 24.9805 35.1807 25.7814C35.1807 28.0554 36.6095 29.9957 38.6182 30.7536V49.9499C36.6095 50.7078 35.1807 52.6481 35.1807 54.9221C35.1807 57.8561 37.5592 60.2346 40.4932 60.2346C43.4272 60.2346 45.8057 57.8561 45.8057 54.9221C45.8057 52.8604 44.6314 51.0731 42.9151 50.1925V30.7796L50.4164 38.2809C50.1145 38.9482 49.9464 39.6889 49.9464 40.4689C49.9464 43.403 52.3248 45.7814 55.2589 45.7814C58.1929 45.7814 60.5714 43.403 60.5714 40.4689C60.5714 37.5349 58.1929 35.1564 55.2589 35.1564C54.6887 35.1564 54.1395 35.2463 53.6247 35.4125L45.5684 27.3563C45.7227 26.8587 45.8057 26.3297 45.8057 25.7814C45.8057 22.8474 43.4272 20.4689 40.4932 20.4689C39.9449 20.4689 39.416 20.552 38.9184 20.7062L30.8665 12.6543Z" fill="white"/>
</svg>
