<svg width="28" height="28" viewBox="0 0 28 28" fill="none" xmlns="http://www.w3.org/2000/svg">
<path d="M15.82 0C15.5436 0.788355 15.483 1.63626 15.6443 2.45592C15.8057 3.27559 16.1832 4.03723 16.7378 4.662L13.9953 7.40445C13.3233 6.80501 12.4923 6.41281 11.6024 6.27514C10.7124 6.13746 9.8017 6.2602 8.97999 6.62855C8.15827 6.9969 7.46068 7.59513 6.97135 8.35107C6.48201 9.10702 6.22185 9.98839 6.22222 10.8889V16.7207C6.22202 17.3847 6.35263 18.0423 6.60661 18.6558C6.86058 19.2694 7.23294 19.8269 7.70241 20.2965C8.17188 20.7661 8.72927 21.1386 9.34274 21.3928C9.95621 21.647 10.6137 21.7778 11.2778 21.7778H17.1111C18.0113 21.7779 18.8923 21.5176 19.648 21.0284C20.4036 20.5391 21.0016 19.8418 21.3699 19.0203C21.7382 18.1989 21.8611 17.2885 21.7237 16.3989C21.5863 15.5092 21.1945 14.6783 20.5956 14.0062L23.3396 11.2607C23.963 11.8176 24.7247 12.1966 25.5449 12.3581C26.3651 12.5195 27.2136 12.4575 28.0016 12.1784L27.9984 24.8889C27.9984 25.714 27.6707 26.5053 27.0872 27.0888C26.5038 27.6722 25.7125 28 24.8873 28H3.11111C2.28599 28 1.49467 27.6722 0.911223 27.0888C0.327777 26.5053 0 25.714 0 24.8889V3.11111C0 2.28599 0.327777 1.49467 0.911223 0.911223C1.49467 0.327777 2.28599 0 3.11111 0H15.82ZM26.0556 0C27.1289 0 28 0.871111 28 1.94444V7.77778C28 8.19034 27.8361 8.586 27.5444 8.87772C27.2527 9.16945 26.857 9.33333 26.4444 9.33333C26.0319 9.33333 25.6362 9.16945 25.3445 8.87772C25.0528 8.586 24.8889 8.19034 24.8889 7.77778V5.31067L14.644 15.5556H17.1111C17.5237 15.5556 17.9193 15.7194 18.2111 16.0112C18.5028 16.3029 18.6667 16.6986 18.6667 17.1111C18.6667 17.5237 18.5028 17.9193 18.2111 18.2111C17.9193 18.5028 17.5237 18.6667 17.1111 18.6667H11.2778C10.2044 18.6667 9.33333 17.7956 9.33333 16.7222V10.8889C9.33333 10.4763 9.49722 10.0807 9.78895 9.78895C10.0807 9.49722 10.4763 9.33333 10.8889 9.33333C11.3014 9.33333 11.6971 9.49722 11.9888 9.78895C12.2806 10.0807 12.4444 10.4763 12.4444 10.8889V13.356L22.6893 3.11111H20.2222C19.8097 3.11111 19.414 2.94722 19.1223 2.6555C18.8306 2.36378 18.6667 1.96811 18.6667 1.55556C18.6667 1.143 18.8306 0.747335 19.1223 0.455612C19.414 0.163888 19.8097 0 20.2222 0H26.0556Z" fill="#A0AEC0"/>
</svg>
