<svg width="20" height="20" viewBox="0 0 20 20" fill="none" xmlns="http://www.w3.org/2000/svg">
<g id="delete" clip-path="url(#clip0_2091_21174)">
<path id="Vector" d="M4.99984 15.8333C4.99984 16.75 5.74984 17.5 6.6665 17.5H13.3332C14.2498 17.5 14.9998 16.75 14.9998 15.8333V7.5C14.9998 6.58333 14.2498 5.83333 13.3332 5.83333H6.6665C5.74984 5.83333 4.99984 6.58333 4.99984 7.5V15.8333ZM14.9998 3.33333H12.9165L12.3248 2.74167C12.1748 2.59167 11.9582 2.5 11.7415 2.5H8.25817C8.0415 2.5 7.82484 2.59167 7.67484 2.74167L7.08317 3.33333H4.99984C4.5415 3.33333 4.1665 3.70833 4.1665 4.16667C4.1665 4.625 4.5415 5 4.99984 5H14.9998C15.4582 5 15.8332 4.625 15.8332 4.16667C15.8332 3.70833 15.4582 3.33333 14.9998 3.33333Z" fill="#F53C2B"/>
</g>
<defs>
<clipPath id="clip0_2091_21174">
<rect width="20" height="20" fill="white"/>
</clipPath>
</defs>
</svg>
