<svg width="57" height="57" viewBox="0 0 57 57" fill="none" xmlns="http://www.w3.org/2000/svg">
<rect x="0.5" y="0.5" width="56" height="56" rx="15" fill="#00B876"/>
<path d="M24.1665 25.6109L28.8725 29.1411C29.1641 29.3598 29.5275 29.4601 29.8899 29.4221C30.2524 29.3841 30.587 29.2104 30.8268 28.936L40.0554 18.3887" stroke="white" stroke-width="2.5" stroke-linecap="round"/>
<path d="M41.5 28.4998C41.5 31.2161 40.6492 33.8642 39.0671 36.0721C37.4849 38.2801 35.2508 39.937 32.6787 40.8101C30.1065 41.6832 27.3254 41.7287 24.7261 40.9402C22.1268 40.1516 19.8397 38.5687 18.1862 36.4136C16.5327 34.2586 15.5957 31.6397 15.5069 28.9249C15.4182 26.21 16.182 23.5355 17.6913 21.2771C19.2005 19.0186 21.3792 17.2896 23.9215 16.3329C26.4638 15.3763 29.2418 15.24 31.8656 15.9432" stroke="white" stroke-width="2.5" stroke-linecap="round"/>
</svg>
