<svg width="84" height="84" viewBox="0 0 84 84" fill="none" xmlns="http://www.w3.org/2000/svg">
<g filter="url(#filter0_b_2091_20721)">
<rect x="2" y="2" width="80" height="80" rx="20" fill="url(#paint0_linear_2091_20721)" fill-opacity="0.1"/>
<rect x="1" y="1" width="82" height="82" rx="21" stroke="url(#paint1_radial_2091_20721)" stroke-width="2"/>
</g>
<g clip-path="url(#clip0_2091_20721)">
<path d="M60.3337 42.0003C60.3337 31.8803 52.1203 23.667 42.0003 23.667C31.8803 23.667 23.667 31.8803 23.667 42.0003C23.667 50.8737 29.9737 58.262 38.3337 59.967V47.5003H34.667V42.0003H38.3337V37.417C38.3337 33.8787 41.212 31.0003 44.7503 31.0003H49.3337V36.5003H45.667C44.6587 36.5003 43.8337 37.3253 43.8337 38.3337V42.0003H49.3337V47.5003H43.8337V60.242C53.092 59.3253 60.3337 51.5153 60.3337 42.0003Z" fill="white"/>
</g>
<defs>
<filter id="filter0_b_2091_20721" x="-42" y="-42" width="168" height="168" filterUnits="userSpaceOnUse" color-interpolation-filters="sRGB">
<feFlood flood-opacity="0" result="BackgroundImageFix"/>
<feGaussianBlur in="BackgroundImageFix" stdDeviation="21"/>
<feComposite in2="SourceAlpha" operator="in" result="effect1_backgroundBlur_2091_20721"/>
<feBlend mode="normal" in="SourceGraphic" in2="effect1_backgroundBlur_2091_20721" result="shape"/>
</filter>
<linearGradient id="paint0_linear_2091_20721" x1="-34.2937" y1="11.7143" x2="51.3745" y2="68.7104" gradientUnits="userSpaceOnUse">
<stop offset="0.0001" stop-color="white" stop-opacity="0"/>
<stop offset="1" stop-color="white" stop-opacity="0.39"/>
</linearGradient>
<radialGradient id="paint1_radial_2091_20721" cx="0" cy="0" r="1" gradientUnits="userSpaceOnUse" gradientTransform="translate(42 42) rotate(-132.581) scale(75.4327 58.5175)">
<stop stop-color="white"/>
<stop offset="1" stop-color="white" stop-opacity="0"/>
</radialGradient>
<clipPath id="clip0_2091_20721">
<rect width="44" height="44" fill="white" transform="translate(20 20)"/>
</clipPath>
</defs>
</svg>
