<svg width="84" height="84" viewBox="0 0 84 84" fill="none" xmlns="http://www.w3.org/2000/svg">
<g filter="url(#filter0_b_2091_20715)">
<g filter="url(#filter1_b_2091_20715)">
<rect x="2" y="2" width="80" height="80" rx="20" fill="url(#paint0_linear_2091_20715)" fill-opacity="0.1"/>
<rect x="1" y="1" width="82" height="82" rx="21" stroke="url(#paint1_radial_2091_20715)" stroke-width="2"/>
</g>
<path d="M60.6622 39.0334L60.468 38.2093H42.5552V45.7907H53.2578C52.1466 51.0673 46.9904 53.8448 42.7786 53.8448C39.7141 53.8448 36.4837 52.5557 34.3455 50.4837C33.2175 49.3731 32.3195 48.0509 31.7031 46.5928C31.0867 45.1346 30.764 43.5693 30.7534 41.9862C30.7534 38.7928 32.1885 35.5985 34.2768 33.4973C36.3651 31.3962 39.519 30.2205 42.6548 30.2205C46.2462 30.2205 48.82 32.1275 49.7825 32.9972L55.1699 27.6381C53.5895 26.2494 49.248 22.75 42.4812 22.75C37.2605 22.75 32.2547 24.7498 28.5955 28.397C24.9844 31.9883 23.1152 37.1815 23.1152 42C23.1152 46.8185 24.8838 51.7522 28.3832 55.3719C32.1223 59.2322 37.4178 61.25 42.8705 61.25C47.8317 61.25 52.5342 59.3061 55.8858 55.7792C59.1806 52.3073 60.8848 47.5034 60.8848 42.4675C60.8848 40.3474 60.6716 39.0884 60.6622 39.0334Z" fill="white"/>
</g>
<defs>
<filter id="filter0_b_2091_20715" x="-120" y="-120" width="324" height="324" filterUnits="userSpaceOnUse" color-interpolation-filters="sRGB">
<feFlood flood-opacity="0" result="BackgroundImageFix"/>
<feGaussianBlur in="BackgroundImageFix" stdDeviation="60"/>
<feComposite in2="SourceAlpha" operator="in" result="effect1_backgroundBlur_2091_20715"/>
<feBlend mode="normal" in="SourceGraphic" in2="effect1_backgroundBlur_2091_20715" result="shape"/>
</filter>
<filter id="filter1_b_2091_20715" x="-42" y="-42" width="168" height="168" filterUnits="userSpaceOnUse" color-interpolation-filters="sRGB">
<feFlood flood-opacity="0" result="BackgroundImageFix"/>
<feGaussianBlur in="BackgroundImageFix" stdDeviation="21"/>
<feComposite in2="SourceAlpha" operator="in" result="effect1_backgroundBlur_2091_20715"/>
<feBlend mode="normal" in="SourceGraphic" in2="effect1_backgroundBlur_2091_20715" result="shape"/>
</filter>
<linearGradient id="paint0_linear_2091_20715" x1="-34.2937" y1="11.7143" x2="51.3745" y2="68.7104" gradientUnits="userSpaceOnUse">
<stop offset="0.0001" stop-color="white" stop-opacity="0"/>
<stop offset="1" stop-color="white" stop-opacity="0.39"/>
</linearGradient>
<radialGradient id="paint1_radial_2091_20715" cx="0" cy="0" r="1" gradientUnits="userSpaceOnUse" gradientTransform="translate(42 42) rotate(-132.581) scale(75.4327 58.5175)">
<stop stop-color="white"/>
<stop offset="1" stop-color="white" stop-opacity="0"/>
</radialGradient>
</defs>
</svg>
