<svg width="56" height="57" viewBox="0 0 56 57" fill="none" xmlns="http://www.w3.org/2000/svg">
<rect y="0.5" width="56" height="56" rx="15" fill="#0075FF"/>
<path d="M24.7124 42.5C23.3244 42.1838 21.9913 41.6629 20.7566 40.9544M31.0927 14.5C34.264 15.2243 37.0954 17.0038 39.1234 19.5472C41.1513 22.0905 42.2557 25.2471 42.2557 28.5C42.2557 31.7529 41.1513 34.9095 39.1234 37.4528C37.0954 39.9962 34.264 41.7757 31.0927 42.5M16.0655 36.6237C15.1963 35.359 14.5355 33.9632 14.1083 32.4893M13.7446 26.1074C13.9998 24.5921 14.4911 23.1565 15.1802 21.8405L15.4498 21.3541M19.7788 16.6629C21.2721 15.6371 22.9461 14.9032 24.7124 14.5" stroke="white" stroke-width="2.5" stroke-linecap="round" stroke-linejoin="round"/>
</svg>
