<svg width="22" height="25" viewBox="0 0 22 25" fill="none" xmlns="http://www.w3.org/2000/svg">
<path id="Vector (Stroke)" fill-rule="evenodd" clip-rule="evenodd" d="M0.908932 0.934811C1.48868 0.355063 2.42864 0.355063 3.00838 0.934811L11.6682 9.5946C12.2479 10.1744 12.2479 11.1143 11.6682 11.6941L3.00838 20.3538C2.42864 20.9336 1.48868 20.9336 0.908932 20.3538C0.329184 19.7741 0.329184 18.8341 0.908932 18.2544L8.519 10.6443L0.908932 3.03426C0.329184 2.45451 0.329184 1.51456 0.908932 0.934811ZM5.42257 23.0155C5.42257 22.1956 6.08722 21.5309 6.90711 21.5309H20.5154C21.3352 21.5309 21.9999 22.1956 21.9999 23.0155C21.9999 23.8354 21.3352 24.5 20.5154 24.5H6.90711C6.08722 24.5 5.42257 23.8354 5.42257 23.0155Z" fill="#00B876"/>
</svg>
