<svg width="31" height="30" viewBox="0 0 31 30" fill="none" xmlns="http://www.w3.org/2000/svg">
<path d="M13.2803 9.79609C13.2803 10.5578 13.2803 11.2961 13.5205 11.9875C10.9951 14.9523 4.32715 22.7863 3.70605 23.384C3.58261 23.4947 3.48387 23.6302 3.41623 23.7817C3.34859 23.9331 3.31358 24.097 3.31348 24.2629C3.31348 24.7609 3.61816 25.2414 3.87598 25.5109C4.2627 25.9152 5.91504 27.4445 6.21973 27.1516C7.12207 26.2726 7.30371 26.0383 7.67285 25.675C8.22949 25.1301 7.61426 24.0168 7.80762 23.5656C8.00098 23.1144 8.20605 23.0266 8.54004 22.9562C8.87402 22.8859 9.46582 23.1262 9.92871 23.132C10.415 23.1379 10.6787 22.9328 11.042 22.593C11.335 22.3234 11.5459 22.0715 11.5518 21.6789C11.5635 21.1516 10.8018 20.4543 11.3701 19.8977C11.9385 19.341 12.7588 20.2609 13.3623 20.1906C13.9658 20.1203 14.6982 19.2824 14.7744 18.925C14.8506 18.5676 14.0889 17.6477 14.2061 17.1262C14.2471 16.9504 14.6045 16.5402 14.874 16.4816C15.1436 16.423 16.3389 16.8859 16.6084 16.8273C16.9365 16.757 17.3174 16.4113 17.6279 16.218C18.5361 16.6105 19.3623 16.7687 20.4228 16.7687C24.4365 16.7687 27.6885 13.6398 27.6885 9.78437C27.6885 5.92891 24.4365 2.81348 20.4228 2.81348C16.4092 2.81348 13.2803 5.94062 13.2803 9.79609ZM23.9385 8.43848C23.9385 8.80932 23.8285 9.17183 23.6225 9.48017C23.4165 9.78851 23.1236 10.0288 22.781 10.1707C22.4384 10.3127 22.0614 10.3498 21.6977 10.2774C21.334 10.2051 20.9999 10.0265 20.7376 9.7643C20.4754 9.50208 20.2968 9.16798 20.2245 8.80427C20.1522 8.44056 20.1893 8.06356 20.3312 7.72094C20.4731 7.37833 20.7134 7.0855 21.0218 6.87947C21.3301 6.67344 21.6926 6.56348 22.0635 6.56348C22.5608 6.56348 23.0377 6.76102 23.3893 7.11265C23.7409 7.46428 23.9385 7.94119 23.9385 8.43848Z" fill="white"/>
</svg>
