<svg width="52" height="36" viewBox="0 0 52 36" fill="none" xmlns="http://www.w3.org/2000/svg">
<path d="M38.4224 35.04H44.3796C44.8359 35.04 45.2416 34.7875 45.4697 34.4087L51.579 23.8027C51.8071 23.4239 51.8071 22.9441 51.579 22.5653L39.8167 1.60568C39.3351 0.747097 38.1183 0.747112 37.6113 1.58044L34.4172 6.90873C34.1891 7.31277 34.1891 7.79257 34.4172 8.17136L42.6813 22.5653C42.9094 22.9441 42.9094 23.4239 42.6813 23.8279L37.2817 33.1713C36.8508 33.9794 37.4591 35.04 38.4224 35.04Z" fill="#0075FF"/>
<path d="M20.6802 35.04H26.6375C27.0938 35.04 27.4994 34.7875 27.7276 34.4087L33.8368 23.8027C34.0649 23.4239 34.0649 22.9441 33.8368 22.5653L22.0745 1.60568C21.5929 0.747097 20.3761 0.747112 19.8691 1.58044L16.675 6.90873C16.4469 7.31277 16.4469 7.79257 16.675 8.17136L24.9391 22.5653C25.1672 22.9441 25.1672 23.4239 24.9391 23.8279L19.5396 33.1713C19.1086 33.9794 19.717 35.04 20.6802 35.04Z" fill="#0075FF"/>
<path d="M0.248047 35.04H8.38538C8.84167 35.04 9.27262 34.7875 9.50077 34.4087L15.6354 23.5754C15.8635 23.1966 15.8635 22.7168 15.6354 22.3128L12.7962 17.4643C12.3146 16.6309 11.0978 16.6309 10.6162 17.4643L0.248047 35.04Z" fill="#0075FF"/>
</svg>
