<svg width="210" height="60" viewBox="0 0 210 60" fill="none" xmlns="http://www.w3.org/2000/svg">
<path d="M51.4572 47.7197H57.9265C58.422 47.7197 58.8625 47.4419 59.1103 47.0253L65.7447 35.3586C65.9924 34.942 65.9924 34.4142 65.7447 33.9975L52.9713 10.9419C52.4483 9.99749 51.1269 9.99751 50.5764 10.9142L47.1077 16.7753C46.8599 17.2197 46.8599 17.7475 47.1077 18.1642L56.0821 33.9975C56.3299 34.4142 56.3299 34.9419 56.0821 35.3864L50.2185 45.6642C49.7505 46.553 50.4111 47.7197 51.4572 47.7197Z" fill="#0075FF"/>
<path d="M32.1877 47.7197H38.657C39.1525 47.7197 39.593 47.4419 39.8408 47.0253L46.4751 35.3586C46.7229 34.942 46.7229 34.4142 46.4751 33.9975L33.7018 10.9419C33.1788 9.99749 31.8574 9.99751 31.3068 10.9142L27.8382 16.7753C27.5904 17.2197 27.5904 17.7475 27.8382 18.1642L36.8126 33.9975C37.0603 34.4142 37.0603 34.9419 36.8126 35.3864L30.9489 45.6642C30.4809 46.553 31.1416 47.7197 32.1877 47.7197Z" fill="#0075FF"/>
<path d="M10 47.7197H18.8368C19.3323 47.7197 19.8003 47.4419 20.0481 47.0253L26.71 35.1086C26.9578 34.692 26.9578 34.1642 26.71 33.7197L23.6268 28.3864C23.1037 27.4697 21.7824 27.4697 21.2594 28.3864L10 47.7197Z" fill="#0075FF"/>
<path d="M80.5594 13.3043C80.5843 12.7708 81.0241 12.351 81.5583 12.351H88.2733C88.7111 12.351 89.0981 12.6358 89.2281 13.054L95.8245 34.2626L105.381 12.9419C105.542 12.5824 105.899 12.351 106.293 12.351H112.916C113.487 12.351 113.942 12.8276 113.915 13.3976L112.549 42.6747C112.524 43.2083 112.084 43.6281 111.55 43.6281H108.309C107.734 43.6281 107.278 43.1454 107.31 42.572L108.707 17.7058C108.709 17.6767 108.686 17.6522 108.656 17.6522C108.636 17.6522 108.618 17.6645 108.61 17.6833L98.0077 43.0141C97.8521 43.386 97.4884 43.6281 97.0853 43.6281H94.6378C94.1983 43.6281 93.8103 43.3411 93.6816 42.9208L85.9449 17.6522H85.8574L84.4511 42.6842C84.4213 43.2138 83.9832 43.6281 83.4527 43.6281H80.1923C79.6217 43.6281 79.1668 43.1514 79.1934 42.5815L80.5594 13.3043Z" fill="white"/>
<path d="M120.545 23.3546C120.581 22.8302 121.017 22.4232 121.542 22.4232H124.791C125.37 22.4232 125.828 22.914 125.789 23.4919L124.467 42.6967C124.431 43.2211 123.995 43.6281 123.469 43.6281H120.221C119.641 43.6281 119.183 43.1373 119.223 42.5594L120.545 23.3546ZM119.864 15.2224C119.864 14.3684 120.171 13.6321 120.784 13.0136C121.426 12.3657 122.228 12.0417 123.192 12.0417C124.155 12.0417 124.957 12.351 125.599 12.9694C126.271 13.5584 126.606 14.3095 126.606 15.2224C126.606 16.1354 126.271 16.9012 125.599 17.5196C124.957 18.1086 124.155 18.4032 123.192 18.4032C122.228 18.4032 121.426 18.0939 120.784 17.4755C120.171 16.8275 119.864 16.0765 119.864 15.2224Z" fill="white"/>
<path d="M131.939 11.1868C131.963 10.652 132.403 10.2305 132.938 10.2305H136.19C136.759 10.2305 137.214 10.7052 137.189 11.2741L135.817 42.6717C135.794 43.2065 135.353 43.6281 134.818 43.6281H131.566C130.997 43.6281 130.542 43.1533 130.567 42.5844L131.939 11.1868Z" fill="white"/>
<path d="M146.009 34.8811C146.184 36.4714 146.797 37.7084 147.848 38.5919C148.899 39.4755 150.168 39.9172 151.657 39.9172C152.97 39.9172 154.065 39.6522 154.94 39.122C155.845 38.5625 156.633 37.8704 157.304 37.0457L161.069 39.9172C159.844 41.4487 158.472 42.5384 156.954 43.1863C155.437 43.8342 153.846 44.1582 152.182 44.1582C150.606 44.1582 149.118 43.8931 147.717 43.363C146.316 42.8329 145.105 42.0819 144.083 41.11C143.062 40.1381 142.244 38.9748 141.631 37.62C141.048 36.2358 140.756 34.7044 140.756 33.0257C140.756 31.3469 141.048 29.8302 141.631 28.4755C142.244 27.0912 143.062 25.9132 144.083 24.9413C145.105 23.9694 146.316 23.2184 147.717 22.6883C149.118 22.1582 150.606 21.8931 152.182 21.8931C153.642 21.8931 154.97 22.1582 156.166 22.6883C157.392 23.189 158.428 23.9253 159.275 24.8971C160.15 25.869 160.821 27.0765 161.288 28.5196C161.785 29.9333 162.033 31.5678 162.033 33.4232V34.8811H146.009ZM156.779 30.9052C156.75 29.3443 156.268 28.122 155.334 27.2385C154.4 26.3255 153.102 25.869 151.438 25.869C149.862 25.869 148.607 26.3255 147.673 27.2385C146.768 28.1515 146.214 29.3737 146.009 30.9052H156.779Z" fill="white"/>
<path d="M168.451 11.1868C168.474 10.652 168.914 10.2305 169.45 10.2305H172.701C173.271 10.2305 173.725 10.7052 173.7 11.2741L172.328 42.6717C172.305 43.2065 171.865 43.6281 171.329 43.6281H168.078C167.508 43.6281 167.054 43.1533 167.079 42.5844L168.451 11.1868Z" fill="white"/>
<path d="M177.4 23.7548C177.171 23.1044 177.654 22.4232 178.343 22.4232H181.966C182.408 22.4232 182.797 22.7131 182.924 23.1363L187.118 37.1341H187.205L193.651 23.0081C193.814 22.6518 194.169 22.4232 194.561 22.4232H197.854C198.577 22.4232 199.061 23.1668 198.769 23.8279L187.993 48.1783C187.614 49.1796 187.19 50.0484 186.724 50.7847C186.286 51.5504 185.76 52.1836 185.147 52.6843C184.535 53.2144 183.805 53.5973 182.958 53.8329C182.141 54.0979 181.149 54.2305 179.981 54.2305C178.907 54.2305 177.85 54.122 176.811 53.905C176.318 53.8021 176.005 53.3263 176.074 52.8273L176.442 50.1522C176.529 49.5223 177.175 49.1342 177.797 49.2656C177.825 49.2714 177.852 49.2771 177.88 49.2827C178.347 49.4005 178.814 49.4594 179.281 49.4594C179.923 49.4594 180.463 49.4005 180.901 49.2827C181.339 49.1649 181.703 48.9734 181.995 48.7084C182.316 48.4728 182.579 48.1488 182.783 47.7365C182.988 47.3536 183.207 46.8824 183.44 46.3228L184.447 43.8048L177.4 23.7548Z" fill="white"/>
<path d="M80.5594 13.3043C80.5843 12.7708 81.0241 12.351 81.5583 12.351H88.2733C88.7111 12.351 89.0981 12.6358 89.2281 13.054L95.8245 34.2626L105.381 12.9419C105.542 12.5824 105.899 12.351 106.293 12.351H112.916C113.487 12.351 113.942 12.8276 113.915 13.3976L112.549 42.6747C112.524 43.2083 112.084 43.6281 111.55 43.6281H108.309C107.734 43.6281 107.278 43.1454 107.31 42.572L108.707 17.7058C108.709 17.6767 108.686 17.6522 108.656 17.6522C108.636 17.6522 108.618 17.6645 108.61 17.6833L98.0077 43.0141C97.8521 43.386 97.4884 43.6281 97.0853 43.6281H94.6378C94.1983 43.6281 93.8103 43.3411 93.6816 42.9208L85.9449 17.6522H85.8574L84.4511 42.6842C84.4213 43.2138 83.9832 43.6281 83.4527 43.6281H80.1923C79.6217 43.6281 79.1668 43.1514 79.1934 42.5815L80.5594 13.3043Z" stroke="white" stroke-width="0.5"/>
<path d="M120.545 23.3546C120.581 22.8302 121.017 22.4232 121.542 22.4232H124.791C125.37 22.4232 125.828 22.914 125.789 23.4919L124.467 42.6967C124.431 43.2211 123.995 43.6281 123.469 43.6281H120.221C119.641 43.6281 119.183 43.1373 119.223 42.5594L120.545 23.3546ZM119.864 15.2224C119.864 14.3684 120.171 13.6321 120.784 13.0136C121.426 12.3657 122.228 12.0417 123.192 12.0417C124.155 12.0417 124.957 12.351 125.599 12.9694C126.271 13.5584 126.606 14.3095 126.606 15.2224C126.606 16.1354 126.271 16.9012 125.599 17.5196C124.957 18.1086 124.155 18.4032 123.192 18.4032C122.228 18.4032 121.426 18.0939 120.784 17.4755C120.171 16.8275 119.864 16.0765 119.864 15.2224Z" stroke="white" stroke-width="0.5"/>
<path d="M131.939 11.1868C131.963 10.652 132.403 10.2305 132.938 10.2305H136.19C136.759 10.2305 137.214 10.7052 137.189 11.2741L135.817 42.6717C135.794 43.2065 135.353 43.6281 134.818 43.6281H131.566C130.997 43.6281 130.542 43.1533 130.567 42.5844L131.939 11.1868Z" stroke="white" stroke-width="0.5"/>
<path d="M146.009 34.8811C146.184 36.4714 146.797 37.7084 147.848 38.5919C148.899 39.4755 150.168 39.9172 151.657 39.9172C152.97 39.9172 154.065 39.6522 154.94 39.122C155.845 38.5625 156.633 37.8704 157.304 37.0457L161.069 39.9172C159.844 41.4487 158.472 42.5384 156.954 43.1863C155.437 43.8342 153.846 44.1582 152.182 44.1582C150.606 44.1582 149.118 43.8931 147.717 43.363C146.316 42.8329 145.105 42.0819 144.083 41.11C143.062 40.1381 142.244 38.9748 141.631 37.62C141.048 36.2358 140.756 34.7044 140.756 33.0257C140.756 31.3469 141.048 29.8302 141.631 28.4755C142.244 27.0912 143.062 25.9132 144.083 24.9413C145.105 23.9694 146.316 23.2184 147.717 22.6883C149.118 22.1582 150.606 21.8931 152.182 21.8931C153.642 21.8931 154.97 22.1582 156.166 22.6883C157.392 23.189 158.428 23.9253 159.275 24.8971C160.15 25.869 160.821 27.0765 161.288 28.5196C161.785 29.9333 162.033 31.5678 162.033 33.4232V34.8811H146.009ZM156.779 30.9052C156.75 29.3443 156.268 28.122 155.334 27.2385C154.4 26.3255 153.102 25.869 151.438 25.869C149.862 25.869 148.607 26.3255 147.673 27.2385C146.768 28.1515 146.214 29.3737 146.009 30.9052H156.779Z" stroke="white" stroke-width="0.5"/>
<path d="M168.451 11.1868C168.474 10.652 168.914 10.2305 169.45 10.2305H172.701C173.271 10.2305 173.725 10.7052 173.7 11.2741L172.328 42.6717C172.305 43.2065 171.865 43.6281 171.329 43.6281H168.078C167.508 43.6281 167.054 43.1533 167.079 42.5844L168.451 11.1868Z" stroke="white" stroke-width="0.5"/>
<path d="M177.4 23.7548C177.171 23.1044 177.654 22.4232 178.343 22.4232H181.966C182.408 22.4232 182.797 22.7131 182.924 23.1363L187.118 37.1341H187.205L193.651 23.0081C193.814 22.6518 194.169 22.4232 194.561 22.4232H197.854C198.577 22.4232 199.061 23.1668 198.769 23.8279L187.993 48.1783C187.614 49.1796 187.19 50.0484 186.724 50.7847C186.286 51.5504 185.76 52.1836 185.147 52.6843C184.535 53.2144 183.805 53.5973 182.958 53.8329C182.141 54.0979 181.149 54.2305 179.981 54.2305C178.907 54.2305 177.85 54.122 176.811 53.905C176.318 53.8021 176.005 53.3263 176.074 52.8273L176.442 50.1522C176.529 49.5223 177.175 49.1342 177.797 49.2656C177.825 49.2714 177.852 49.2771 177.88 49.2827C178.347 49.4005 178.814 49.4594 179.281 49.4594C179.923 49.4594 180.463 49.4005 180.901 49.2827C181.339 49.1649 181.703 48.9734 181.995 48.7084C182.316 48.4728 182.579 48.1488 182.783 47.7365C182.988 47.3536 183.207 46.8824 183.44 46.3228L184.447 43.8048L177.4 23.7548Z" stroke="white" stroke-width="0.5"/>
</svg>
