<svg width="72" height="71" viewBox="0 0 72 71" fill="none" xmlns="http://www.w3.org/2000/svg">
<g filter="url(#filter0_d_2091_19006)">
<rect x="6" y="2" width="60" height="60" rx="17" fill="#0075FF"/>
</g>
<path fill-rule="evenodd" clip-rule="evenodd" d="M48.128 47.9924C48.4614 47.9667 48.8287 47.9001 49.161 47.8051C49.678 47.6572 50.2767 47.3618 50.7097 47.0409C51.8607 46.1879 52.5705 44.932 52.7016 43.5163C52.7186 43.3322 52.7186 42.8428 52.7016 42.6587C52.5919 41.4744 52.0719 40.3868 51.2257 39.5723C50.4054 38.7827 49.3848 38.3103 48.246 38.1932C48.0351 38.1715 47.4871 38.1715 47.2762 38.1932C45.7606 38.3491 44.4346 39.1499 43.603 40.4117C43.2694 40.9179 43.0288 41.4949 42.9073 42.0805L42.8762 42.2299H41.5354H40.1946L40.1534 42.0935C39.8825 41.1965 39.1445 40.5 38.2182 40.2672C37.3027 40.0371 36.3183 40.3057 35.6444 40.9694C35.3013 41.3074 35.0575 41.7302 34.9233 42.2202C34.9198 42.2331 34.1092 42.2363 30.9246 42.236C28.7005 42.2358 26.8085 42.2303 26.6552 42.2236C25.7043 42.1822 24.8572 41.9021 24.0756 41.3705C23.6191 41.0601 23.1703 40.6209 22.8455 40.1667C21.8228 38.7365 21.662 36.8874 22.4215 35.2909C22.5119 35.101 22.6269 34.903 22.7761 34.6804C23.451 33.6736 24.5035 32.94 25.6832 32.654C26.1113 32.5503 26.3124 32.5285 26.9113 32.5207L27.4164 32.5142L27.4406 32.6163C27.5453 33.0593 27.8105 33.526 28.1486 33.862C28.7294 34.439 29.5303 34.726 30.3388 34.6469C31.0847 34.5739 31.7774 34.1918 32.2331 33.6019C32.45 33.3212 32.6337 32.9423 32.7105 32.6176L32.7343 32.5169H36.5627H40.3912L40.415 32.6176C40.5202 33.0628 40.7864 33.5289 41.1294 33.8686C41.7063 34.4397 42.5083 34.7256 43.3129 34.6469C43.8602 34.5933 44.3829 34.3729 44.813 34.0142C45.2718 33.6317 45.5958 33.0798 45.7133 32.4804L45.7489 32.2991L45.8736 32.2637C46.1688 32.1798 46.5784 32.0171 46.8877 31.8609C48.7087 30.9409 49.9623 29.1856 50.2242 27.1894C50.4223 25.6786 50.0551 24.1768 49.1819 22.9273C48.2405 21.5801 46.7796 20.6503 45.1728 20.3754C44.6898 20.2928 44.874 20.298 42.2721 20.2932L39.8956 20.2887L39.8745 20.2339C39.863 20.2038 39.8134 20.1002 39.7643 20.0037C39.3989 19.2855 38.7046 18.7979 37.885 18.6841C37.6575 18.6525 37.2903 18.6642 37.0703 18.71C36.2618 18.8786 35.5998 19.4099 35.2794 20.1473L35.2204 20.2831L32.059 20.2863C30.3202 20.2881 28.893 20.2851 28.8874 20.2795C28.8818 20.2739 28.8623 20.1821 28.844 20.0753C28.6957 19.2072 28.3004 18.3769 27.7147 17.7037C27.5481 17.5122 27.2482 17.2255 27.0549 17.0728C26.2986 16.4757 25.4305 16.1235 24.4601 16.0201C24.2062 15.9931 23.7029 15.9933 23.4465 16.0206C22.5956 16.1111 21.7841 16.4124 21.1052 16.8898C20.6366 17.2193 20.1925 17.6643 19.8716 18.1261C18.7746 19.7045 18.7077 21.7965 19.702 23.4341C19.9205 23.794 20.1605 24.0972 20.4629 24.3957C21.2663 25.1884 22.255 25.6577 23.4248 25.8016C23.6401 25.8281 24.3161 25.8238 24.5453 25.7945C25.769 25.6382 26.8354 25.0883 27.6482 24.1942C28.2979 23.4796 28.7359 22.5488 28.8695 21.5987L28.8782 21.537H31.9941H35.1101L35.1332 21.6442C35.3395 22.6008 36.106 23.3422 37.0935 23.5403C37.2265 23.567 37.2811 23.5705 37.5587 23.5704C37.9183 23.5703 38.0444 23.5521 38.3297 23.4592C39.1758 23.1837 39.8197 22.467 39.9899 21.6111L40.0049 21.5359L42.2481 21.5406C44.6749 21.5458 44.5533 21.5424 44.9697 21.6156C46.9391 21.9616 48.528 23.5084 48.9198 25.4612C49.1722 26.7188 48.9063 28.0307 48.1824 29.0995C47.5911 29.9724 46.7202 30.647 45.7523 30.9819L45.598 31.0353L45.5844 30.9999C45.3826 30.4737 44.9743 29.9845 44.4866 29.6845C44.0483 29.415 43.5742 29.2816 43.054 29.2815C42.612 29.2813 42.249 29.3639 41.8572 29.5538C41.4071 29.7719 41.0348 30.1007 40.7586 30.5241C40.6664 30.6654 40.5344 30.9407 40.4793 31.1067L40.4296 31.2565L36.5632 31.2565L32.6967 31.2564L32.6406 31.0921C32.3846 30.3421 31.7791 29.7255 31.024 29.4458C30.4469 29.232 29.7595 29.225 29.1784 29.4269C29.0403 29.4749 28.7829 29.5961 28.6603 29.6709C28.1264 29.9965 27.708 30.5141 27.5101 31.094L27.4546 31.2564L27.0527 31.2565C26.6161 31.2565 26.3608 31.2699 26.0458 31.3094C25.1336 31.4239 24.2222 31.7648 23.4314 32.2873C22.4477 32.9373 21.6577 33.8735 21.187 34.947C20.5639 36.3683 20.5129 37.9925 21.0457 39.4437C21.533 40.7708 22.4719 41.8964 23.6998 42.6257C24.514 43.1093 25.4308 43.3961 26.399 43.4703C26.5157 43.4793 27.9832 43.4839 30.7434 43.484L34.9115 43.4842L34.9528 43.6302C35.0676 44.0354 35.2905 44.4166 35.598 44.7338C36.0353 45.1848 36.5677 45.456 37.1878 45.5434C37.3683 45.5688 37.7467 45.5685 37.9332 45.5427C38.8185 45.4203 39.5856 44.8716 39.9887 44.0726C40.0646 43.9222 40.1534 43.6874 40.1857 43.5521L40.202 43.4838H41.5094H42.8168L42.8323 43.6235C42.9192 44.4064 43.1874 45.1406 43.6259 45.7968C43.8192 46.086 44 46.3046 44.2549 46.5577C45.0623 47.3591 46.0624 47.8393 47.2041 47.9736C47.4107 47.9979 47.9212 48.0083 48.128 47.9924ZM47.2172 46.8234C45.9856 46.6414 44.9335 45.8939 44.3708 44.8012C44.0914 44.2587 43.9606 43.7125 43.9606 43.0874C43.9606 42.7133 43.9917 42.4701 44.0859 42.1097C44.2613 41.4385 44.6684 40.7737 45.1915 40.3041C45.7932 39.7638 46.4777 39.4522 47.3155 39.3368C47.5204 39.3086 48.0687 39.3151 48.2855 39.3484C49.1469 39.4806 49.8568 39.8315 50.4478 40.4172C51.0746 41.0383 51.4489 41.8158 51.5488 42.7042C51.5667 42.8633 51.5667 43.3118 51.5488 43.4708C51.4695 44.1763 51.2255 44.7941 50.8073 45.3485C50.1576 46.2098 49.1918 46.7437 48.0922 46.8495C47.8981 46.8681 47.4244 46.854 47.2172 46.8234ZM47.9773 45.7107C48.1143 45.6998 48.3361 45.6641 48.4622 45.6325C49.1923 45.4501 49.8322 44.9393 50.1692 44.27C50.5475 43.5186 50.5434 42.6345 50.1582 41.8911C49.5064 40.6333 47.9462 40.1145 46.663 40.729C45.7409 41.1705 45.1677 42.0724 45.1665 43.0836C45.1658 43.697 45.3613 44.2556 45.7432 44.7313C45.8434 44.8561 46.0641 45.0727 46.1819 45.1619C46.5505 45.441 46.9759 45.6208 47.4203 45.6851C47.5638 45.7059 47.8643 45.7197 47.9773 45.7107ZM37.1532 44.9269C36.3108 44.7573 35.6767 44.1318 35.4926 43.2889C35.4668 43.1708 35.4628 43.115 35.4628 42.8731C35.4628 42.6333 35.4669 42.5751 35.4918 42.4619C35.6312 41.8279 36.0299 41.3083 36.5961 41.0229C36.9104 40.8645 37.2066 40.7941 37.5587 40.7941C38.5681 40.7941 39.4102 41.4774 39.6244 42.4703C39.6677 42.6711 39.6684 43.0638 39.6257 43.2724C39.4941 43.9162 39.081 44.455 38.4965 44.7451C38.2862 44.8495 38.0555 44.9168 37.7684 44.9575C37.6688 44.9716 37.2789 44.9522 37.1532 44.9269ZM42.7615 34.0358C41.9869 33.9366 41.3054 33.3792 41.0578 32.6424C40.9716 32.386 40.9538 32.2695 40.9541 31.9647C40.9544 31.6566 40.9725 31.5405 41.0589 31.2935C41.1708 30.9738 41.3176 30.7436 41.5679 30.4955C41.7548 30.3102 41.8965 30.2076 42.1169 30.0979C42.704 29.8058 43.412 29.8089 43.9979 30.1061C44.5791 30.4008 44.9747 30.9146 45.1165 31.5586C45.1419 31.6741 45.1457 31.729 45.1452 31.9712C45.1448 32.2092 45.1405 32.2696 45.1161 32.3791C45.019 32.8152 44.8123 33.1868 44.507 33.4743C44.0325 33.9213 43.4158 34.1197 42.7615 34.0358ZM29.7874 34.0358C28.8992 33.9221 28.1704 33.23 28.0033 32.3415C27.9667 32.1469 27.9699 31.7417 28.0095 31.5586C28.0701 31.2787 28.1707 31.041 28.3285 30.8055C28.4516 30.6218 28.7132 30.3598 28.8891 30.2441C29.6277 29.758 30.5236 29.758 31.2622 30.2441C31.4381 30.3598 31.6997 30.6218 31.8228 30.8055C31.9804 31.0407 32.0808 31.2775 32.1421 31.5586C32.1818 31.7409 32.1849 32.1457 32.1481 32.3415C31.9403 33.446 30.9168 34.1805 29.7874 34.0358ZM23.5361 24.6621C22.8378 24.5823 22.2227 24.3385 21.6556 23.9167C21.4701 23.7787 21.1526 23.4739 21.0039 23.2912C20.3153 22.4447 20.0264 21.3665 20.202 20.2992C20.3783 19.228 21.0252 18.2707 21.9586 17.6998C22.9208 17.1113 24.0826 16.9781 25.1612 17.3326C26.3467 17.7222 27.2554 18.6584 27.6134 19.859C27.7702 20.3851 27.8045 20.992 27.709 21.55C27.4885 22.8367 26.5995 23.9265 25.372 24.4149C25.024 24.5534 24.7336 24.6223 24.2832 24.6732C24.1649 24.6866 23.6884 24.6795 23.5361 24.6621ZM37.1695 22.9927C36.4177 22.835 35.8384 22.262 35.6715 21.511C35.6425 21.3808 35.6306 21.0015 35.651 20.8589C35.7613 20.0869 36.3289 19.462 37.0935 19.2709C38.0611 19.029 39.0656 19.5754 39.3802 20.515C39.4501 20.7235 39.467 20.822 39.4746 21.0627C39.4804 21.2481 39.4772 21.3087 39.4547 21.4396C39.3137 22.2589 38.6673 22.884 37.8274 23.0131C37.6688 23.0375 37.3334 23.0271 37.1695 22.9927ZM25.3218 21.4419C26.0588 20.9618 26.6603 20.5649 26.6585 20.56C26.655 20.5504 23.9801 18.8082 23.9689 18.8082C23.9652 18.8082 23.9621 19.0041 23.9621 19.2435V19.6788H22.6057H21.2493V20.5624V21.446H22.6057H23.9621V21.8813C23.9621 22.1207 23.9665 22.3162 23.9719 22.3157C23.9773 22.3152 24.5848 21.922 25.3218 21.4419Z" fill="white"/>
<defs>
<filter id="filter0_d_2091_19006" x="0.5" y="-2.38419e-07" width="71" height="71" filterUnits="userSpaceOnUse" color-interpolation-filters="sRGB">
<feFlood flood-opacity="0" result="BackgroundImageFix"/>
<feColorMatrix in="SourceAlpha" type="matrix" values="0 0 0 0 0 0 0 0 0 0 0 0 0 0 0 0 0 0 127 0" result="hardAlpha"/>
<feOffset dy="3.5"/>
<feGaussianBlur stdDeviation="2.75"/>
<feColorMatrix type="matrix" values="0 0 0 0 0 0 0 0 0 0 0 0 0 0 0 0 0 0 0.02 0"/>
<feBlend mode="normal" in2="BackgroundImageFix" result="effect1_dropShadow_2091_19006"/>
<feBlend mode="normal" in="SourceGraphic" in2="effect1_dropShadow_2091_19006" result="shape"/>
</filter>
</defs>
</svg>
