<svg width="72" height="71" viewBox="0 0 72 71" fill="none" xmlns="http://www.w3.org/2000/svg">
<g filter="url(#filter0_d_2091_20226)">
<rect x="6" y="2" width="60" height="60" rx="17" fill="#0075FF"/>
</g>
<path d="M27.0937 46.0635H25.2187C24.8458 46.0635 24.4881 45.9153 24.2244 45.6516C23.9607 45.3879 23.8125 45.0302 23.8125 44.6572V36.2197C23.8125 35.8468 23.9607 35.4891 24.2244 35.2254C24.4881 34.9616 24.8458 34.8135 25.2187 34.8135H27.0937C27.4667 34.8135 27.8244 34.9616 28.0881 35.2254C28.3518 35.4891 28.5 35.8468 28.5 36.2197V44.6572C28.5 45.0302 28.3518 45.3879 28.0881 45.6516C27.8244 45.9153 27.4667 46.0635 27.0937 46.0635Z" fill="white"/>
<path d="M40.2187 46.0615H38.3437C37.9708 46.0615 37.6131 45.9134 37.3494 45.6496C37.0857 45.3859 36.9375 45.0282 36.9375 44.6553V30.5928C36.9375 30.2198 37.0857 29.8621 37.3494 29.5984C37.6131 29.3347 37.9708 29.1865 38.3437 29.1865H40.2187C40.5917 29.1865 40.9494 29.3347 41.2131 29.5984C41.4768 29.8621 41.625 30.2198 41.625 30.5928V44.6553C41.625 45.0282 41.4768 45.3859 41.2131 45.6496C40.9494 45.9134 40.5917 46.0615 40.2187 46.0615Z" fill="white"/>
<path d="M46.7812 46.0625H44.9062C44.5333 46.0625 44.1756 45.9143 43.9119 45.6506C43.6482 45.3869 43.5 45.0292 43.5 44.6562V24.0312C43.5 23.6583 43.6482 23.3006 43.9119 23.0369C44.1756 22.7732 44.5333 22.625 44.9062 22.625H46.7812C47.1542 22.625 47.5119 22.7732 47.7756 23.0369C48.0393 23.3006 48.1875 23.6583 48.1875 24.0312V44.6562C48.1875 45.0292 48.0393 45.3869 47.7756 45.6506C47.5119 45.9143 47.1542 46.0625 46.7812 46.0625Z" fill="white"/>
<path d="M33.6562 46.0625H31.7812C31.4083 46.0625 31.0506 45.9143 30.7869 45.6506C30.5232 45.3869 30.375 45.0292 30.375 44.6562V19.3437C30.375 18.9708 30.5232 18.6131 30.7869 18.3494C31.0506 18.0857 31.4083 17.9375 31.7812 17.9375H33.6562C34.0292 17.9375 34.3869 18.0857 34.6506 18.3494C34.9143 18.6131 35.0625 18.9708 35.0625 19.3437V44.6562C35.0625 45.0292 34.9143 45.3869 34.6506 45.6506C34.3869 45.9143 34.0292 46.0625 33.6562 46.0625Z" fill="white"/>
<defs>
<filter id="filter0_d_2091_20226" x="0.5" y="-2.38419e-07" width="71" height="71" filterUnits="userSpaceOnUse" color-interpolation-filters="sRGB">
<feFlood flood-opacity="0" result="BackgroundImageFix"/>
<feColorMatrix in="SourceAlpha" type="matrix" values="0 0 0 0 0 0 0 0 0 0 0 0 0 0 0 0 0 0 127 0" result="hardAlpha"/>
<feOffset dy="3.5"/>
<feGaussianBlur stdDeviation="2.75"/>
<feColorMatrix type="matrix" values="0 0 0 0 0 0 0 0 0 0 0 0 0 0 0 0 0 0 0.02 0"/>
<feBlend mode="normal" in2="BackgroundImageFix" result="effect1_dropShadow_2091_20226"/>
<feBlend mode="normal" in="SourceGraphic" in2="effect1_dropShadow_2091_20226" result="shape"/>
</filter>
</defs>
</svg>
