<svg width="72" height="71" viewBox="0 0 72 71" fill="none" xmlns="http://www.w3.org/2000/svg">
<g filter="url(#filter0_d_2091_19001)">
<rect x="6" y="2" width="60" height="60" rx="17" fill="#1A1F37"/>
</g>
<path d="M36.3474 22.3311C36.2543 22.2421 36.1305 22.1924 36.0018 22.1924C35.873 22.1924 35.7492 22.2421 35.6561 22.3311L24.1499 33.3229C24.101 33.3697 24.0622 33.4259 24.0356 33.4881C24.0091 33.5503 23.9955 33.6172 23.9955 33.6848L23.9937 44.0011C23.9937 44.5315 24.2044 45.0402 24.5794 45.4153C24.9545 45.7903 25.4632 46.0011 25.9937 46.0011H31.9999C32.2651 46.0011 32.5195 45.8957 32.707 45.7082C32.8945 45.5206 32.9999 45.2663 32.9999 45.0011V36.5011C32.9999 36.3685 33.0526 36.2413 33.1463 36.1475C33.2401 36.0537 33.3673 36.0011 33.4999 36.0011H38.4999C38.6325 36.0011 38.7597 36.0537 38.8535 36.1475C38.9472 36.2413 38.9999 36.3685 38.9999 36.5011V45.0011C38.9999 45.2663 39.1053 45.5206 39.2928 45.7082C39.4803 45.8957 39.7347 46.0011 39.9999 46.0011H46.0036C46.5341 46.0011 47.0428 45.7903 47.4179 45.4153C47.7929 45.0402 48.0036 44.5315 48.0036 44.0011V33.6848C48.0037 33.6172 47.9901 33.5503 47.9635 33.4881C47.937 33.4259 47.8981 33.3697 47.8493 33.3229L36.3474 22.3311Z" fill="#0075FF"/>
<path d="M50.6826 31.2613L46.0076 26.7888V20.002C46.0076 19.7367 45.9023 19.4824 45.7147 19.2948C45.5272 19.1073 45.2728 19.002 45.0076 19.002H42.0076C41.7424 19.002 41.4881 19.1073 41.3005 19.2948C41.113 19.4824 41.0076 19.7367 41.0076 20.002V22.002L37.3876 18.5407C37.0489 18.1982 36.5451 18.002 36.0008 18.002C35.4583 18.002 34.9558 18.1982 34.617 18.5413L21.3233 31.2601C20.9345 31.6351 20.8858 32.252 21.2395 32.6582C21.3283 32.7607 21.4371 32.8441 21.5592 32.9033C21.6813 32.9625 21.8141 32.9962 21.9497 33.0024C22.0852 33.0086 22.2206 32.9871 22.3475 32.9394C22.4745 32.8916 22.5904 32.8185 22.6883 32.7245L35.657 20.332C35.7501 20.2429 35.8739 20.1933 36.0026 20.1933C36.1314 20.1933 36.2552 20.2429 36.3483 20.332L49.3182 32.7245C49.5093 32.9077 49.7652 33.0077 50.0299 33.0025C50.2945 32.9973 50.5463 32.8875 50.7301 32.697C51.1139 32.2995 51.082 31.6432 50.6826 31.2613Z" fill="#0075FF"/>
<defs>
<filter id="filter0_d_2091_19001" x="0.5" y="-2.38419e-07" width="71" height="71" filterUnits="userSpaceOnUse" color-interpolation-filters="sRGB">
<feFlood flood-opacity="0" result="BackgroundImageFix"/>
<feColorMatrix in="SourceAlpha" type="matrix" values="0 0 0 0 0 0 0 0 0 0 0 0 0 0 0 0 0 0 127 0" result="hardAlpha"/>
<feOffset dy="3.5"/>
<feGaussianBlur stdDeviation="2.75"/>
<feColorMatrix type="matrix" values="0 0 0 0 0 0 0 0 0 0 0 0 0 0 0 0 0 0 0.02 0"/>
<feBlend mode="normal" in2="BackgroundImageFix" result="effect1_dropShadow_2091_19001"/>
<feBlend mode="normal" in="SourceGraphic" in2="effect1_dropShadow_2091_19001" result="shape"/>
</filter>
</defs>
</svg>
