<svg width="36" height="30" viewBox="0 0 36 30" fill="none" xmlns="http://www.w3.org/2000/svg">
<g clip-path="url(#clip0_2091_21300)">
<path d="M17.8553 10C19.4791 10 20.8077 8.875 20.8077 7.5C20.8077 6.125 19.4791 5 17.8553 5C16.2314 5 14.9028 6.125 14.9028 7.5C14.9028 8.875 16.2314 10 17.8553 10ZM17.8553 12.5C16.2314 12.5 14.9028 13.625 14.9028 15C14.9028 16.375 16.2314 17.5 17.8553 17.5C19.4791 17.5 20.8077 16.375 20.8077 15C20.8077 13.625 19.4791 12.5 17.8553 12.5ZM17.8553 20C16.2314 20 14.9028 21.125 14.9028 22.5C14.9028 23.875 16.2314 25 17.8553 25C19.4791 25 20.8077 23.875 20.8077 22.5C20.8077 21.125 19.4791 20 17.8553 20Z" fill="#A0AEC0"/>
</g>
<defs>
<clipPath id="clip0_2091_21300">
<rect width="35.4294" height="30" fill="white" transform="translate(0.140625)"/>
</clipPath>
</defs>
</svg>
