<svg width="30" height="30" viewBox="0 0 30 30" fill="none" xmlns="http://www.w3.org/2000/svg">
<path d="M15 2.81152C8.27988 2.81152 2.8125 8.27891 2.8125 14.999C2.8125 21.7191 8.27988 27.1865 15 27.1865C21.7201 27.1865 27.1875 21.7191 27.1875 14.999C27.1875 8.27891 21.7201 2.81152 15 2.81152ZM12.0574 9.65645C12.7998 8.86953 13.8445 8.43652 15 8.43652C16.1555 8.43652 17.1908 8.87246 17.9361 9.66348C18.6914 10.465 19.0588 11.542 18.9721 12.6998C18.7986 14.999 17.0174 16.874 15 16.874C12.9826 16.874 11.1979 14.999 11.0279 12.6992C10.9418 11.532 11.3086 10.4516 12.0574 9.65645ZM15 25.3115C13.6233 25.3124 12.2605 25.0369 10.9923 24.5012C9.72409 23.9656 8.57637 23.1807 7.61719 22.1932C8.16654 21.4097 8.8665 20.7436 9.67617 20.2338C11.1697 19.2764 13.06 18.749 15 18.749C16.94 18.749 18.8303 19.2764 20.3221 20.2338C21.1324 20.7434 21.833 21.4095 22.3828 22.1932C21.4237 23.1808 20.276 23.9657 19.0078 24.5014C17.7396 25.0371 16.3767 25.3126 15 25.3115Z" fill="white"/>
</svg>
