<svg width="31" height="30" viewBox="0 0 31 30" fill="none" xmlns="http://www.w3.org/2000/svg">
<path d="M26.3338 7.98524C26.3692 7.9646 26.3986 7.93504 26.419 7.89953C26.4394 7.86401 26.4501 7.82376 26.4501 7.7828C26.4501 7.74184 26.4394 7.70159 26.419 7.66607C26.3986 7.63055 26.3692 7.601 26.3338 7.58036L17.3842 2.38075C16.8116 2.04883 16.1615 1.87402 15.4996 1.87402C14.8377 1.87402 14.1875 2.04883 13.6149 2.38075L4.66705 7.58036C4.63167 7.601 4.60232 7.63055 4.58192 7.66607C4.56152 7.70159 4.55078 7.74184 4.55078 7.7828C4.55078 7.82376 4.56152 7.86401 4.58192 7.89953C4.60232 7.93504 4.63167 7.9646 4.66705 7.98524L15.3827 14.2888C15.4187 14.31 15.4598 14.3212 15.5016 14.3212C15.5435 14.3212 15.5845 14.31 15.6206 14.2888L26.3338 7.98524Z" fill="white"/>
<path d="M3.66407 9.57828C3.62833 9.55764 3.58777 9.54681 3.5465 9.54688C3.50523 9.54694 3.46471 9.5579 3.42903 9.57865C3.39336 9.59941 3.36379 9.62921 3.34333 9.66505C3.32287 9.70089 3.31224 9.7415 3.3125 9.78277V19.9716C3.31339 20.4626 3.4428 20.9448 3.68786 21.3703C3.93293 21.7958 4.28511 22.1497 4.70938 22.3968L14.2109 28.0939C14.2466 28.1145 14.2869 28.1253 14.3281 28.1253C14.3692 28.1253 14.4096 28.1145 14.4452 28.094C14.4808 28.0734 14.5104 28.0439 14.531 28.0083C14.5516 27.9727 14.5625 27.9323 14.5625 27.8912V16.0699C14.5625 16.0288 14.5516 15.9884 14.531 15.9528C14.5105 15.9172 14.4809 15.8877 14.4453 15.8671L3.66407 9.57828Z" fill="white"/>
<path d="M16.4375 16.1115V27.8888C16.4375 27.9299 16.4484 27.9703 16.469 28.0059C16.4896 28.0415 16.5192 28.0711 16.5548 28.0916C16.5904 28.1122 16.6308 28.123 16.6719 28.123C16.7131 28.1229 16.7535 28.1121 16.7891 28.0916L26.29 22.3945C26.714 22.1477 27.066 21.7943 27.3112 21.3693C27.5563 20.9444 27.686 20.4628 27.6875 19.9722V9.78335C27.6874 9.74228 27.6764 9.70197 27.6558 9.66646C27.6352 9.63094 27.6056 9.60147 27.57 9.581C27.5343 9.56053 27.494 9.54977 27.4529 9.5498C27.4118 9.54984 27.3715 9.56067 27.3359 9.58121L16.5547 15.9093C16.5192 15.9298 16.4897 15.9593 16.4691 15.9948C16.4485 16.0302 16.4376 16.0705 16.4375 16.1115Z" fill="white"/>
</svg>
