<svg width="33" height="30" viewBox="0 0 33 30" fill="none" xmlns="http://www.w3.org/2000/svg">
<path fill-rule="evenodd" clip-rule="evenodd" d="M28.004 29.9929C28.3165 29.9688 28.661 29.9064 28.9725 29.8173C29.4571 29.6786 30.0184 29.4017 30.4244 29.1008C31.5034 28.3012 32.1688 27.1237 32.2917 25.7965C32.3077 25.624 32.3077 25.1651 32.2917 24.9925C32.1889 23.8822 31.7014 22.8627 30.9081 22.099C30.1391 21.3588 29.1823 20.9159 28.1146 20.8061C27.9169 20.7858 27.4032 20.7858 27.2054 20.8061C25.7846 20.9523 24.5415 21.7031 23.7618 22.886C23.4491 23.3605 23.2235 23.9015 23.1096 24.4505L23.0805 24.5905H21.8235H20.5665L20.5279 24.4626C20.2738 23.6217 19.582 22.9688 18.7136 22.7505C17.8553 22.5348 16.9324 22.7866 16.3007 23.4088C15.9789 23.7256 15.7504 24.1221 15.6246 24.5814C15.6213 24.5936 14.8613 24.5966 11.8758 24.5963C9.79073 24.5961 8.01695 24.5909 7.87327 24.5847C6.98177 24.5458 6.18762 24.2832 5.45486 23.7849C5.02693 23.4939 4.60617 23.0821 4.30169 22.6563C3.3429 21.3154 3.19216 19.582 3.9042 18.0852C3.98889 17.9072 4.0967 17.7215 4.23657 17.5129C4.86932 16.569 5.856 15.8812 6.96203 15.6132C7.36337 15.5159 7.55191 15.4954 8.11338 15.4882L8.58692 15.4821L8.60953 15.5777C8.70768 15.9931 8.95637 16.4307 9.27336 16.7456C9.81778 17.2865 10.5686 17.5556 11.3266 17.4815C12.0259 17.413 12.6753 17.0548 13.1026 16.5018C13.3059 16.2386 13.4781 15.8834 13.5501 15.579L13.5724 15.4846H17.1616H20.7507L20.7731 15.579C20.8717 15.9964 21.1212 16.4334 21.4428 16.7518C21.9837 17.2873 22.7355 17.5553 23.4898 17.4815C24.003 17.4313 24.4929 17.2246 24.8962 16.8883C25.3263 16.5297 25.63 16.0123 25.7402 15.4504L25.7736 15.2804L25.8905 15.2472C26.1672 15.1686 26.5513 15.016 26.8412 14.8696C28.5484 14.0071 29.7237 12.3615 29.9691 10.49C30.1549 9.07368 29.8106 7.66576 28.9921 6.49437C28.1095 5.23138 26.7399 4.35961 25.2335 4.10198C24.7807 4.02452 24.9534 4.02942 22.5141 4.02486L20.2861 4.0207L20.2664 3.9693C20.2555 3.94104 20.209 3.8439 20.163 3.75345C19.8205 3.08012 19.1695 2.62301 18.4011 2.5163C18.1879 2.48668 17.8437 2.49766 17.6374 2.54066C16.8795 2.69867 16.2588 3.19678 15.9584 3.88811L15.9031 4.01536L12.9393 4.01843C11.3092 4.02012 9.97117 4.01724 9.96593 4.01204C9.96067 4.00682 9.94237 3.92067 9.92528 3.82059C9.78623 3.00673 9.41558 2.22837 8.86657 1.59726C8.71036 1.4177 8.42923 1.14888 8.248 1.00577C7.53898 0.445929 6.72514 0.115761 5.81535 0.0188789C5.57731 -0.00647163 5.10544 -0.00626183 4.86511 0.0193062C4.06741 0.104155 3.30662 0.386589 2.67011 0.834175C2.23083 1.14308 1.81451 1.56033 1.51366 1.99317C0.485193 3.47294 0.422497 5.43423 1.35461 6.96947C1.55944 7.30684 1.78444 7.59117 2.06797 7.87093C2.82117 8.61409 3.74803 9.05405 4.84475 9.18897C5.04664 9.21381 5.68036 9.20984 5.89521 9.18239C7.04249 9.03584 8.04217 8.52024 8.80416 7.68211C9.41331 7.01209 9.8239 6.13949 9.94913 5.24878L9.95728 5.19091H12.8785H15.7998L15.8214 5.29141C16.0148 6.18829 16.7333 6.88333 17.6591 7.06904C17.7839 7.09405 17.835 7.09736 18.0953 7.09727C18.4324 7.09713 18.5506 7.08008 18.8181 6.99299C19.6113 6.73472 20.215 6.06282 20.3746 5.26044L20.3886 5.18988L22.4916 5.19434C24.7667 5.19916 24.6527 5.19602 25.0431 5.26461C26.8894 5.58902 28.379 7.03913 28.7463 8.86984C28.9829 10.0488 28.7336 11.2788 28.055 12.2808C27.5007 13.0991 26.6842 13.7316 25.7768 14.0455L25.6321 14.0956L25.6194 14.0624C25.4302 13.5691 25.0475 13.1105 24.5902 12.8293C24.1792 12.5766 23.7348 12.4515 23.2471 12.4514C22.8327 12.4512 22.4924 12.5287 22.1251 12.7067C21.7032 12.9111 21.3541 13.2194 21.0952 13.6163C21.0087 13.7488 20.885 14.0069 20.8334 14.1625L20.7867 14.303L17.162 14.3029L13.5372 14.3029L13.4846 14.1488C13.2446 13.4458 12.6769 12.8677 11.969 12.6054C11.428 12.405 10.7836 12.3984 10.2388 12.5877C10.1093 12.6327 9.86793 12.7464 9.75304 12.8164C9.25246 13.1217 8.86029 13.607 8.67472 14.1506L8.62272 14.3029L8.24591 14.3029C7.8366 14.303 7.59728 14.3155 7.30197 14.3526C6.44671 14.4599 5.59231 14.7795 4.85089 15.2694C3.9287 15.8787 3.18807 16.7564 2.74684 17.7628C2.16266 19.0953 2.11482 20.6179 2.61437 21.9785C3.07119 23.2226 3.95137 24.2779 5.10261 24.9616C5.86592 25.415 6.72536 25.6839 7.63308 25.7534C7.74251 25.7618 9.11821 25.7662 11.7059 25.7663L15.6135 25.7664L15.6523 25.9033C15.7599 26.2832 15.9689 26.6406 16.2571 26.9379C16.6671 27.3608 17.1662 27.615 17.7476 27.6969C17.9168 27.7208 18.2716 27.7204 18.4463 27.6963C19.2763 27.5815 19.9955 27.0671 20.3734 26.3181C20.4445 26.1771 20.5278 25.957 20.5581 25.83L20.5734 25.7661H21.7991H23.0248L23.0393 25.897C23.1208 26.631 23.3721 27.3193 23.7833 27.9345C23.9645 28.2056 24.134 28.4106 24.373 28.6478C25.1299 29.3992 26.0675 29.8493 27.1379 29.9753C27.3315 29.9981 27.8101 30.0078 28.004 29.9929ZM27.1501 28.897C25.9955 28.7263 25.0092 28.0256 24.4816 27.0012C24.2197 26.4925 24.0971 25.9804 24.0971 25.3945C24.097 25.0437 24.1263 24.8157 24.2146 24.4778C24.379 23.8486 24.7606 23.2254 25.251 22.7851C25.8152 22.2786 26.4568 21.9864 27.2423 21.8782C27.4344 21.8518 27.9484 21.8579 28.1516 21.8891C28.9593 22.0131 29.6248 22.342 30.1788 22.8911C30.7665 23.4734 31.1173 24.2023 31.211 25.0352C31.2278 25.1843 31.2278 25.6048 31.211 25.7539C31.1366 26.4153 30.9079 26.9945 30.5159 27.5142C29.9067 28.3217 29.0013 28.8222 27.9705 28.9214C27.7884 28.9389 27.3444 28.9257 27.1501 28.897ZM27.8627 27.8538C27.9912 27.8436 28.1991 27.8101 28.3173 27.7805C29.0018 27.6095 29.6017 27.1306 29.9176 26.5031C30.2723 25.7987 30.2684 24.9699 29.9073 24.2729C29.2963 23.0937 27.8336 22.6074 26.6306 23.1834C25.7661 23.5974 25.2287 24.4429 25.2276 25.3909C25.2269 25.966 25.4102 26.4896 25.7682 26.9356C25.8622 27.0525 26.0691 27.2556 26.1795 27.3393C26.5251 27.601 26.9239 27.7695 27.3406 27.8298C27.475 27.8493 27.7568 27.8622 27.8627 27.8538ZM17.7151 27.1189C16.9254 26.9599 16.3309 26.3735 16.1584 25.5834C16.1342 25.4726 16.1304 25.4203 16.1304 25.1935C16.1304 24.9687 16.1343 24.9142 16.1576 24.808C16.2882 24.2136 16.6621 23.7265 17.1929 23.459C17.4875 23.3105 17.7652 23.2444 18.0953 23.2444C19.0416 23.2444 19.8311 23.8851 20.0319 24.8159C20.0725 25.0041 20.0731 25.3723 20.0331 25.5679C19.9097 26.1714 19.5224 26.6766 18.9745 26.9485C18.7773 27.0464 18.5611 27.1095 18.2919 27.1476C18.1985 27.1609 17.833 27.1427 17.7151 27.1189ZM22.9729 16.9086C22.2467 16.8156 21.6078 16.293 21.3757 15.6023C21.2949 15.3619 21.2782 15.2527 21.2785 14.9669C21.2788 14.678 21.2958 14.5692 21.3768 14.3377C21.4816 14.038 21.6193 13.8221 21.854 13.5895C22.0291 13.4158 22.162 13.3196 22.3686 13.2168C22.919 12.943 23.5827 12.9458 24.132 13.2244C24.6769 13.5008 25.0478 13.9824 25.1807 14.5862C25.2045 14.6944 25.2081 14.7459 25.2077 14.973C25.2072 15.1961 25.2032 15.2527 25.1803 15.3554C25.0893 15.7642 24.8955 16.1127 24.6093 16.3822C24.1644 16.8012 23.5863 16.9872 22.9729 16.9086ZM10.8096 16.9086C9.977 16.8019 9.29379 16.1531 9.13708 15.3201C9.10277 15.1377 9.10578 14.7578 9.1429 14.5862C9.19968 14.3237 9.29405 14.101 9.44201 13.8802C9.55741 13.708 9.80266 13.4623 9.96754 13.3538C10.66 12.8982 11.4999 12.8982 12.1923 13.3538C12.3572 13.4623 12.6025 13.708 12.7179 13.8802C12.8656 14.1007 12.9597 14.3227 13.0172 14.5862C13.0544 14.7571 13.0573 15.1366 13.0228 15.3201C12.828 16.3556 11.8685 17.0442 10.8096 16.9086ZM4.94911 8.12069C4.29447 8.04592 3.71781 7.81735 3.18613 7.4219C3.01223 7.29255 2.71454 7.00682 2.57516 6.83547C1.92963 6.04188 1.65874 5.03111 1.82339 4.03047C1.98863 3.02621 2.59512 2.12874 3.4702 1.59357C4.37227 1.04189 5.46143 0.917013 6.47266 1.24932C7.58401 1.61453 8.43595 2.49229 8.77155 3.61782C8.91859 4.11099 8.95075 4.68003 8.86115 5.2031C8.6545 6.40943 7.82108 7.43114 6.67023 7.88902C6.34399 8.01883 6.07179 8.08338 5.64949 8.13111C5.53858 8.14364 5.09188 8.137 4.94911 8.12069ZM17.7304 6.55567C17.0256 6.40777 16.4825 5.87063 16.326 5.16655C16.2988 5.04451 16.2877 4.68891 16.3068 4.55519C16.4102 3.83146 16.9424 3.24564 17.6591 3.06644C18.5663 2.83965 19.508 3.35198 19.803 4.2328C19.8684 4.42824 19.8843 4.52067 19.8914 4.74627C19.8969 4.92005 19.8939 4.97689 19.8728 5.09962C19.7406 5.86769 19.1346 6.45371 18.3472 6.57481C18.1985 6.59768 17.8841 6.58792 17.7304 6.55567ZM6.62316 5.10176C7.31409 4.65165 7.87803 4.2796 7.87634 4.27499C7.87304 4.26597 5.36536 2.63272 5.35482 2.63272C5.35133 2.63272 5.34848 2.81636 5.34848 3.04081V3.44891H4.07687H2.80526V4.27727V5.10564H4.07687H5.34848V5.51373C5.34848 5.73818 5.35263 5.92145 5.35769 5.92099C5.36276 5.92054 5.93222 5.55188 6.62316 5.10176Z" fill="white"/>
</svg>
