<svg width="24" height="30" viewBox="0 0 24 30" fill="none" xmlns="http://www.w3.org/2000/svg">
<path id="Vector" d="M2.78585 2.22894V26.569L10.0058 21.1059C10.6327 20.6317 11.4116 20.3733 12.2144 20.3733C13.0172 20.3733 13.7962 20.6317 14.4231 21.1059L21.643 26.5668V2.22894H2.78585ZM1.60728 0H22.8216C23.1341 0 23.4339 0.117417 23.6549 0.326421C23.876 0.535425 24.0001 0.818896 24.0001 1.11447V28.8871C23.9998 29.0968 23.9369 29.3022 23.8187 29.4796C23.7005 29.6571 23.5317 29.7993 23.3318 29.8901C23.1319 29.9809 22.909 30.0165 22.6886 29.9929C22.4683 29.9692 22.2594 29.8873 22.0861 29.7564L12.9499 22.8467C12.741 22.689 12.4817 22.6031 12.2144 22.6031C11.9472 22.6031 11.6878 22.689 11.479 22.8467L2.34271 29.7564C2.16941 29.8873 1.96059 29.9692 1.74023 29.9929C1.51987 30.0165 1.29693 29.9809 1.09702 29.8901C0.897112 29.7993 0.72835 29.6571 0.610129 29.4796C0.491908 29.3022 0.429027 29.0968 0.428711 28.8871V1.11447C0.428711 0.818896 0.552882 0.535425 0.773907 0.326421C0.994932 0.117417 1.29471 0 1.60728 0Z" fill="white"/>
</svg>
