<svg width="28" height="28" viewBox="0 0 28 28" fill="none" xmlns="http://www.w3.org/2000/svg">
<path d="M12.4444 0C12.8409 0.000439767 13.2223 0.152256 13.5106 0.424431C13.7989 0.696605 13.9724 1.06859 13.9956 1.46439C14.0188 1.86019 13.8901 2.24992 13.6356 2.55396C13.3811 2.858 13.0201 3.05339 12.6264 3.10022L12.4444 3.11111H3.11111V24.8889H24.8889V15.5556C24.8893 15.1591 25.0411 14.7777 25.3133 14.4894C25.5855 14.2011 25.9575 14.0276 26.3533 14.0044C26.7491 13.9812 27.1388 14.1099 27.4429 14.3644C27.7469 14.6189 27.9423 14.9799 27.9891 15.3736L28 15.5556V24.8889C28.0002 25.6738 27.7038 26.4298 27.1701 27.0053C26.6364 27.5808 25.9049 27.9334 25.1222 27.9922L24.8889 28H3.11111C2.32621 28.0002 1.57023 27.7038 0.994703 27.1701C0.419177 26.6364 0.0666453 25.9049 0.00777811 25.1222L1.55972e-07 24.8889V3.11111C-0.000248234 2.32621 0.296188 1.57023 0.829884 0.994703C1.36358 0.419176 2.09509 0.0666452 2.87778 0.00777796L3.11111 0H12.4444ZM26.0556 0C27.1289 0 28 0.871111 28 1.94444V7.77778C28 8.19034 27.8361 8.586 27.5444 8.87772C27.2527 9.16945 26.857 9.33333 26.4444 9.33333C26.0319 9.33333 25.6362 9.16945 25.3445 8.87772C25.0528 8.586 24.8889 8.19034 24.8889 7.77778V5.31067L14.644 15.5556H17.1111C17.5237 15.5556 17.9193 15.7194 18.2111 16.0112C18.5028 16.3029 18.6667 16.6986 18.6667 17.1111C18.6667 17.5237 18.5028 17.9193 18.2111 18.2111C17.9193 18.5028 17.5237 18.6667 17.1111 18.6667H11.2778C10.2044 18.6667 9.33333 17.7956 9.33333 16.7222V10.8889C9.33333 10.4763 9.49722 10.0807 9.78895 9.78895C10.0807 9.49722 10.4763 9.33333 10.8889 9.33333C11.3014 9.33333 11.6971 9.49722 11.9888 9.78895C12.2806 10.0807 12.4444 10.4763 12.4444 10.8889V13.356L22.6893 3.11111H20.2222C19.8097 3.11111 19.414 2.94722 19.1223 2.6555C18.8306 2.36378 18.6667 1.96811 18.6667 1.55556C18.6667 1.143 18.8306 0.747335 19.1223 0.455612C19.414 0.163888 19.8097 0 20.2222 0H26.0556Z" fill="#A0AEC0"/>
</svg>
