<svg width="31" height="30" viewBox="0 0 31 30" fill="none" xmlns="http://www.w3.org/2000/svg">
<path d="M27.2588 24.6918L21.7457 19.1787C23.073 17.4117 23.7895 15.2609 23.7871 13.051C23.7871 7.40605 19.1945 2.81348 13.5496 2.81348C7.90471 2.81348 3.31213 7.40605 3.31213 13.051C3.31213 18.6959 7.90471 23.2885 13.5496 23.2885C15.7596 23.2909 17.9104 22.5744 19.6774 21.2471L25.1904 26.7601C25.4695 27.0096 25.8335 27.1428 26.2077 27.1323C26.5818 27.1218 26.9378 26.9685 27.2025 26.7038C27.4672 26.4392 27.6205 26.0832 27.631 25.709C27.6414 25.3348 27.5083 24.9709 27.2588 24.6918ZM6.23713 13.051C6.23713 11.6047 6.666 10.1909 7.46951 8.98837C8.27302 7.78583 9.41507 6.84857 10.7513 6.29511C12.0874 5.74164 13.5577 5.59683 14.9762 5.87898C16.3947 6.16114 17.6977 6.85758 18.7203 7.88026C19.743 8.90293 20.4395 10.2059 20.7216 11.6244C21.0038 13.0429 20.859 14.5132 20.3055 15.8493C19.752 17.1855 18.8148 18.3276 17.6122 19.1311C16.4097 19.9346 14.9959 20.3635 13.5496 20.3635C11.6109 20.3611 9.75234 19.59 8.38148 18.2191C7.01063 16.8483 6.23946 14.9897 6.23713 13.051Z" fill="#BCBCBC"/>
</svg>
