<svg width="57" height="57" viewBox="0 0 57 57" fill="none" xmlns="http://www.w3.org/2000/svg">
<rect x="0.5" y="0.5" width="56" height="56" rx="15" fill="#F7A300"/>
<path d="M15.5 28.5C15.5 25.0522 16.8696 21.7456 19.3076 19.3076C21.7456 16.8696 25.0522 15.5 28.5 15.5C31.9478 15.5 35.2544 16.8696 37.6924 19.3076C40.1304 21.7456 41.5 25.0522 41.5 28.5C41.5 31.9478 40.1304 35.2544 37.6924 37.6924C35.2544 40.1304 31.9478 41.5 28.5 41.5C25.0522 41.5 21.7456 40.1304 19.3076 37.6924C16.8696 35.2544 15.5 31.9478 15.5 28.5ZM33.9161 24.9786C34.1529 24.7245 34.2819 24.3884 34.2757 24.041C34.2696 23.6937 34.1289 23.3624 33.8833 23.1167C33.6376 22.8711 33.3063 22.7304 32.959 22.7243C32.6116 22.7181 32.2755 22.8471 32.0214 23.0839L23.0839 32.0214C22.8471 32.2755 22.7181 32.6116 22.7243 32.959C22.7304 33.3063 22.8711 33.6376 23.1167 33.8833C23.3624 34.1289 23.6937 34.2696 24.041 34.2757C24.3884 34.2819 24.7245 34.1529 24.9786 33.9161L33.9161 24.9786Z" fill="white"/>
</svg>
