<svg width="35" height="32" viewBox="0 0 35 32" fill="none" xmlns="http://www.w3.org/2000/svg">
<path d="M11 12.6663L16.43 17.7396C16.7664 17.9919 17.1857 18.1077 17.6039 18.0638C18.0221 18.0199 18.4082 17.8195 18.6849 17.5029L33.5 1.5" stroke="#009BFF" stroke-width="2" stroke-linecap="round"/>
<path d="M30.9997 15.9996C30.9998 19.1338 30.0181 22.1892 28.1925 24.7369C26.3669 27.2845 23.7892 29.1963 20.8214 30.2037C17.8535 31.2112 14.6446 31.2636 11.6454 30.3538C8.6462 29.4439 6.00733 27.6175 4.09943 25.1309C2.19153 22.6443 1.11044 19.6226 1.00802 16.4901C0.905588 13.3576 1.78696 10.2717 3.52835 7.66577C5.26974 5.05988 7.78365 3.06492 10.717 1.96108C13.6504 0.857246 16.8558 0.699987 19.8832 1.51139" stroke="#009BFF" stroke-width="2" stroke-linecap="round"/>
</svg>
