<svg width="56" height="57" viewBox="0 0 56 57" fill="none" xmlns="http://www.w3.org/2000/svg">
<rect y="0.5" width="56" height="56" rx="15" fill="#7000FF"/>
<path d="M28.0013 41.4997C30.3945 41.4997 32.3346 39.5596 32.3346 37.1663C32.3346 34.7731 30.3945 32.833 28.0013 32.833C25.6081 32.833 23.668 34.7731 23.668 37.1663C23.668 39.5596 25.6081 41.4997 28.0013 41.4997Z" stroke="white" stroke-width="2" stroke-linecap="round" stroke-linejoin="round"/>
<path d="M19.3338 24.1667C21.7271 24.1667 23.6672 22.2266 23.6672 19.8333C23.6672 17.4401 21.7271 15.5 19.3338 15.5C16.9406 15.5 15.0005 17.4401 15.0005 19.8333C15.0005 22.2266 16.9406 24.1667 19.3338 24.1667Z" stroke="white" stroke-width="2" stroke-linecap="round" stroke-linejoin="round"/>
<path d="M36.6663 24.1667C39.0596 24.1667 40.9997 22.2266 40.9997 19.8333C40.9997 17.4401 39.0596 15.5 36.6663 15.5C34.2731 15.5 32.333 17.4401 32.333 19.8333C32.333 22.2266 34.2731 24.1667 36.6663 24.1667Z" stroke="white" stroke-width="2" stroke-linecap="round" stroke-linejoin="round"/>
<path d="M36.6663 24.167V27.0559C36.6663 27.9225 36.0886 28.5003 35.2219 28.5003H20.7775C19.9108 28.5003 19.333 27.9225 19.333 27.0559V24.167" stroke="white" stroke-width="2" stroke-linecap="round" stroke-linejoin="round"/>
<path d="M28.0005 28.5V32.8333" stroke="white" stroke-width="2" stroke-linecap="round" stroke-linejoin="round"/>
</svg>
