<svg width="17" height="18" viewBox="0 0 17 18" fill="none" xmlns="http://www.w3.org/2000/svg">
<path d="M15.5411 2.1147H17.0001C17.0001 1.72777 16.8463 1.35668 16.5727 1.08307C16.2991 0.809471 15.9281 0.655762 15.5411 0.655762V2.1147ZM15.5411 0.655762H2.95171C2.14597 0.655762 1.49277 1.30895 1.49277 2.1147C1.49277 2.92045 2.14596 3.57364 2.95171 3.57364H15.5411V0.655762ZM14.0822 2.1147V14.7041C14.0822 15.5098 14.7354 16.163 15.5411 16.163C16.3469 16.163 17.0001 15.5098 17.0001 14.7041V2.1147H14.0822ZM14.5082 1.08177L0.479314 14.85C-0.0915677 15.4204 -0.0917621 16.3456 0.478879 16.9163C1.04918 17.4866 1.97376 17.4867 2.5443 16.9167L16.574 3.14763L14.5082 1.08177Z" fill="white"/>
</svg>
